# xmcd CD database file
#
# Track frame offsets:
#	183
#	16680
#	29630
#	43243
#	55130
#	67675
#	77340
#	92180
#	103468
#	113500
#	126993
#	141328
#	154443
#	168745
#
# Disc length: 2512 seconds
#
# Revision: 0
# Processed by: cddbd v1.5.2PL0 Copyright (c) Steve Scherf et al.
# Submitted via: CDex 1.70beta2
#
DISCID=bf09ce0e
DTITLE=Peggy Lee - Portrait of a song stylist
DYEAR=1990
DGENRE=Jazz
TTITLE0=The folks who live on the hill
TTITLE1=As time goes by
TTITLE2=Taht old devil moon
TTITLE3=Cheek to cheek
TTITLE4=When a man loves a woman
TTITLE5=I hear music
TTITLE6=The party's over
TTITLE7='Til there was you
TTITLE8=I enjoy being a girl
TTITLE9=Fly me to the moon
TTITLE10=Stormy weather
TTITLE11=Alright, okay you win
TTITLE12=Something
TTITLE13=Is that all there is
EXTD=YEAR: 1990
EXTT0=
EXTT1=
EXTT2=
EXTT3=
EXTT4=
EXTT5=
EXTT6=
EXTT7=
EXTT8=
EXTT9=
EXTT10=
EXTT11=
EXTT12=
EXTT13=
PLAYORDER=
